<?xml version="1.0" encoding="utf-8"?>
<!-- Generator: Adobe Illustrator 24.0.1, SVG Export Plug-In . SVG Version: 6.00 Build 0)  -->
<svg version="1.1" id="Layer_1" xmlns="http://www.w3.org/2000/svg" xmlns:xlink="http://www.w3.org/1999/xlink" x="0px" y="0px"
	 viewBox="0 0" style="enable-background:new 0 0 150 25;" xml:space="preserve">
<g id="XMLID_5_">
	<path id="XMLID_2_" d="M0.2,22.98h137.17c0.15,0,0.28,0.13,0.28,0.28v1.13c0,0.15-0.13,0.28-0.28,0.28H0.2
		c-0.15,0-0.28-0.13-0.28-0.28v-1.13C-0.09,23.11,0.04,22.98,0.2,22.98z"/>
	<g>
		<path d="M3.98,2.13C3.36,6.35,3.03,8.61,3.01,8.9c-0.2,1.68-0.34,3-0.41,3.96C2.5,14,2.5,14.69,2.57,14.9
			c0.09,0.26,0.17,0.42,0.26,0.48c0.44,0.29,1.38,0.31,2.83,0.04c1-0.19,2.21-0.53,3.64-1.02c0.35-0.12,0.69-0.1,1.02,0.06
			c0.33,0.16,0.56,0.41,0.68,0.76c0.12,0.35,0.09,0.69-0.07,1.02c-0.16,0.33-0.41,0.56-0.76,0.68c-1.54,0.51-2.88,0.87-4.03,1.09
			c-2.18,0.41-3.77,0.27-4.79-0.41c-0.61-0.42-1.05-1.06-1.31-1.92c-0.17-0.55-0.21-1.55-0.11-3c0.07-1.12,0.22-2.5,0.44-4.14
			c0.03-0.26,0.36-2.53,1-6.81c0.04-0.36,0.21-0.65,0.51-0.87c0.3-0.22,0.63-0.3,0.99-0.25c0.36,0.05,0.65,0.22,0.87,0.52
			C3.96,1.43,4.04,1.76,3.98,2.13z"/>
		<path d="M21.31,16.88c-0.87,0.16-1.64,0.27-2.32,0.33c-0.67,0.06-1.47,0.03-2.39-0.08c-0.92-0.11-1.74-0.34-2.47-0.71
			c-0.84-0.41-1.53-0.99-2.08-1.76c-0.54-0.77-0.89-1.58-1.03-2.43c-0.14-0.85-0.04-1.71,0.32-2.59c0.36-0.88,0.96-1.62,1.82-2.23
			c0.9-0.62,1.97-1.06,3.22-1.3c1.25-0.24,2.43-0.26,3.55-0.08l0.24,0.02c0.17,0.03,0.32,0.05,0.44,0.07
			c0.58,0.15,0.96,0.46,1.13,0.96c0.13,0.36,0.09,0.76-0.13,1.2c-0.1,0.23-0.27,0.49-0.5,0.78c-0.35,0.45-0.84,0.99-1.48,1.63
			c-0.83,0.86-1.73,1.71-2.7,2.55c-0.22,0.19-0.47,0.28-0.75,0.26c-0.28-0.01-0.52-0.13-0.7-0.35c-0.18-0.22-0.26-0.47-0.25-0.75
			c0.01-0.28,0.13-0.51,0.35-0.69c0.91-0.81,1.78-1.63,2.61-2.46c0.48-0.48,0.86-0.89,1.13-1.24c-0.86-0.12-1.75-0.08-2.67,0.12
			c-0.92,0.2-1.69,0.52-2.32,0.97c-0.65,0.45-1.06,1.03-1.23,1.75c-0.17,0.72-0.08,1.43,0.27,2.12s0.91,1.23,1.68,1.61
			c0.52,0.26,1.13,0.43,1.83,0.5c0.7,0.09,1.35,0.1,1.97,0.05c0.62-0.05,1.32-0.14,2.12-0.27c0.28-0.06,0.53,0,0.76,0.16
			c0.23,0.17,0.37,0.39,0.42,0.66c0.05,0.28-0.01,0.53-0.17,0.76C21.81,16.7,21.59,16.84,21.31,16.88z"/>
		<path d="M25.95,6.28l1.11,1.02l1.35,1.26l1.09,1.02c0.01,0.01,0.3,0.27,0.87,0.76c0.35,0.3,0.66,0.62,0.94,0.94
			c0.22,0.23,0.54,0.62,0.98,1.18l0.68,0.87c0.28,0.38,0.44,0.66,0.5,0.85c0.23,0.77,0.17,1.44-0.17,2
			c-0.25,0.38-0.65,0.69-1.22,0.94c-0.42,0.2-0.93,0.36-1.52,0.46c-1.2,0.23-2.41,0.27-3.61,0.11c-1.49-0.19-2.55-0.66-3.16-1.42
			c-0.84-1.06-0.73-2.32,0.33-3.79c0.22-0.31,0.62-0.61,1.2-0.91l0.37-0.17c0.12-0.07,0.24-0.14,0.37-0.2s0.21-0.09,0.24-0.11
			c0.26-0.13,0.53-0.15,0.79-0.05c0.27,0.09,0.46,0.27,0.59,0.52c0.12,0.25,0.14,0.52,0.04,0.78c-0.09,0.27-0.26,0.46-0.51,0.58
			c-0.04,0.03-0.12,0.07-0.24,0.12c-0.12,0.05-0.23,0.11-0.35,0.16c-0.12,0.06-0.23,0.12-0.33,0.17l-0.52,0.33
			c-0.45,0.61-0.58,1.04-0.39,1.28c0.28,0.33,0.88,0.56,1.83,0.67c0.97,0.13,1.96,0.1,2.96-0.09c0.44-0.09,0.8-0.2,1.09-0.33
			c0.13-0.04,0.23-0.1,0.3-0.15c0-0.07-0.01-0.16-0.02-0.26l-0.02-0.02c-0.01-0.01-0.04-0.05-0.09-0.11l-0.11-0.15
			c-0.13-0.2-0.33-0.47-0.61-0.81l-0.91-1.11c-0.23-0.26-0.49-0.51-0.76-0.74c-0.58-0.52-0.89-0.8-0.91-0.83
			c-0.25-0.22-0.61-0.56-1.09-1.02l-1.31-1.22L24.6,7.85c-0.2-0.19-0.32-0.42-0.34-0.71c-0.02-0.28,0.06-0.53,0.24-0.74
			c0.18-0.21,0.41-0.33,0.7-0.35C25.48,6.03,25.73,6.11,25.95,6.28z"/>
		<path d="M36.24,10.27c0.77-1.45,1.85-2.69,3.24-3.72c0.23-0.16,0.49-0.22,0.76-0.19c0.28,0.04,0.5,0.17,0.66,0.4
			c0.17,0.23,0.23,0.49,0.2,0.76c-0.04,0.28-0.17,0.5-0.4,0.68c-1.77,1.34-2.89,2.99-3.35,4.96c-0.07,0.28-0.16,1-0.26,2.18
			c-0.06,0.67-0.09,1.05-0.11,1.15c-0.03,0.19-0.05,0.34-0.07,0.46l-0.09,0.26c-0.09,0.28-0.28,0.48-0.57,0.61
			c-0.32,0.15-0.63,0.15-0.94,0.02c-0.33-0.14-0.54-0.4-0.63-0.76c-0.06-0.2-0.07-0.45-0.02-0.74c0.01-0.14,0.03-0.27,0.04-0.37
			c0.01-0.1,0.03-0.17,0.03-0.21c0.01-0.04,0.01-0.07,0.01-0.1c-0.01-0.14-0.04-0.36-0.09-0.63c-0.04-0.28-0.07-0.46-0.09-0.57
			c-0.1-0.88-0.22-2.17-0.35-3.85l-0.26-3.05c-0.03-0.28,0.05-0.52,0.23-0.74c0.18-0.22,0.41-0.34,0.7-0.37
			c0.28-0.03,0.53,0.05,0.75,0.23C35.87,6.87,36,7.1,36.02,7.39C36.07,7.93,36.14,8.89,36.24,10.27z"/>
		<path d="M47.95,7.87c-0.29-0.06-0.79,0.32-1.5,1.13c-0.2,0.25-0.38,0.52-0.54,0.83c-0.16,0.3-0.3,0.67-0.41,1.1
			c-0.12,0.43-0.2,0.78-0.25,1.06c-0.05,0.28-0.12,0.71-0.22,1.32c-0.09,0.6-0.16,1.02-0.21,1.25c-0.01,0.1-0.03,0.23-0.04,0.39
			c-0.01,0.31-0.03,0.48-0.04,0.52c-0.04,0.54-0.17,0.98-0.37,1.33c-0.04,0.09-0.1,0.17-0.17,0.24c-0.19,0.2-0.42,0.32-0.7,0.35
			c-0.44,0.03-0.77-0.15-1-0.52c-0.06-0.12-0.1-0.24-0.13-0.37c-0.01-0.14-0.01-0.35,0-0.61c0-0.03,0.01-0.2,0.04-0.5
			c0.01-0.17,0.02-0.29,0.02-0.35c-0.01-0.87-0.01-1.86,0-2.96c0-0.8,0.04-1.93,0.12-3.4c0.08-1.47,0.13-2.42,0.14-2.85
			c0.01-0.28,0.12-0.51,0.33-0.71c0.2-0.2,0.45-0.29,0.73-0.27c0.28,0.01,0.52,0.12,0.72,0.33c0.2,0.2,0.29,0.45,0.27,0.74
			c-0.01,0.52-0.05,1.23-0.11,2.11c0.1-0.13,0.2-0.25,0.3-0.37c1.45-1.67,2.76-2.21,3.94-1.61c0.87,0.44,1.48,1.49,1.83,3.18
			c0.38,1.87,0.49,4.26,0.33,7.16c-0.01,0.28-0.13,0.51-0.34,0.7c-0.21,0.19-0.46,0.28-0.74,0.26c-0.28-0.01-0.52-0.13-0.71-0.34
			c-0.19-0.21-0.28-0.46-0.26-0.75c0.14-2.8,0.05-5.01-0.28-6.62C48.47,8.62,48.23,8.03,47.95,7.87z"/>
		<path d="M55.09,6.31c-0.29,2.79-0.21,5.88,0.24,9.27c0.03,0.28-0.04,0.53-0.22,0.75c-0.17,0.22-0.4,0.36-0.68,0.39
			c-0.28,0.04-0.53-0.03-0.75-0.21c-0.23-0.17-0.36-0.4-0.4-0.67c-0.46-3.63-0.54-6.88-0.24-9.75c0.03-0.28,0.16-0.5,0.38-0.69
			c0.22-0.18,0.47-0.26,0.75-0.23c0.28,0.03,0.5,0.16,0.69,0.38C55.04,5.78,55.12,6.03,55.09,6.31z M54.61,2.37
			c0.2,0.2,0.3,0.44,0.3,0.72c0,0.28-0.1,0.52-0.3,0.72c-0.2,0.2-0.44,0.3-0.72,0.3c-0.28,0-0.52-0.1-0.72-0.3
			c-0.2-0.2-0.3-0.44-0.3-0.72c0-0.28,0.1-0.52,0.3-0.72c0.2-0.2,0.44-0.3,0.72-0.3C54.17,2.06,54.41,2.16,54.61,2.37z"/>
		<path d="M62.17,7.87c-0.29-0.06-0.79,0.32-1.5,1.13c-0.2,0.25-0.38,0.52-0.54,0.83c-0.16,0.3-0.3,0.67-0.41,1.1
			c-0.12,0.43-0.2,0.78-0.25,1.06c-0.05,0.28-0.12,0.71-0.22,1.32c-0.09,0.6-0.16,1.02-0.21,1.25c-0.01,0.1-0.03,0.23-0.04,0.39
			c-0.01,0.31-0.03,0.48-0.04,0.52c-0.04,0.54-0.17,0.98-0.37,1.33c-0.04,0.09-0.1,0.17-0.17,0.24c-0.19,0.2-0.42,0.32-0.7,0.35
			c-0.44,0.03-0.77-0.15-1-0.52c-0.06-0.12-0.1-0.24-0.13-0.37c-0.01-0.14-0.01-0.35,0-0.61c0-0.03,0.01-0.2,0.04-0.5
			c0.01-0.17,0.02-0.29,0.02-0.35c-0.01-0.87-0.01-1.86,0-2.96c0-0.8,0.04-1.93,0.12-3.4c0.08-1.47,0.13-2.42,0.14-2.85
			c0.01-0.28,0.12-0.51,0.33-0.71c0.2-0.2,0.45-0.29,0.73-0.27c0.28,0.01,0.52,0.12,0.72,0.33c0.2,0.2,0.29,0.45,0.27,0.74
			c-0.01,0.52-0.05,1.23-0.11,2.11c0.1-0.13,0.2-0.25,0.3-0.37c1.45-1.67,2.76-2.21,3.94-1.61c0.87,0.44,1.48,1.49,1.83,3.18
			c0.38,1.87,0.49,4.26,0.33,7.16c-0.01,0.28-0.13,0.51-0.34,0.7c-0.21,0.19-0.46,0.28-0.74,0.26c-0.28-0.01-0.52-0.13-0.71-0.34
			c-0.19-0.21-0.28-0.46-0.26-0.75c0.14-2.8,0.05-5.01-0.28-6.62C62.69,8.62,62.44,8.03,62.17,7.87z"/>
		<path d="M68.33,18.26c0.16,0.12,0.33,0.25,0.51,0.4c0.18,0.15,0.33,0.28,0.46,0.37c0.12,0.09,0.25,0.18,0.38,0.25
			c0.2,0.1,0.49,0.15,0.85,0.14c0.36-0.01,0.63-0.07,0.81-0.19c0.9-0.52,1.47-1.5,1.7-2.94c0.04-0.33,0.08-0.7,0.1-1.1
			c0.02-0.4,0.03-0.74,0.03-1.02c0-0.28,0-0.66-0.01-1.12c-0.01-0.46-0.01-0.81-0.01-1.04c0-0.93-0.06-1.81-0.17-2.66
			c-0.15-1.06-0.36-1.78-0.63-2.18h-0.02c-0.06-0.03-0.1-0.05-0.13-0.05c-0.03-0.01-0.08-0.01-0.15-0.01s-0.15,0.01-0.22,0.02
			c-0.07,0.01-0.17,0.04-0.29,0.07c-0.12,0.03-0.25,0.07-0.38,0.13c-0.96,0.38-1.81,0.99-2.55,1.83c-0.68,0.77-0.97,1.38-0.87,1.83
			c0.03,0.09,0.09,0.18,0.17,0.28c0.09,0.1,0.31,0.23,0.67,0.38c0.36,0.15,0.83,0.26,1.42,0.32c0.12,0.01,0.23,0.03,0.34,0.03
			c0.11,0.01,0.23,0,0.37-0.01c0.14-0.01,0.25-0.03,0.33-0.04c0.08-0.01,0.22-0.04,0.42-0.07c0.2-0.03,0.36-0.05,0.48-0.07
			c0.28-0.04,0.53,0.02,0.75,0.19c0.22,0.17,0.36,0.39,0.4,0.66c0.04,0.28-0.02,0.53-0.19,0.75c-0.17,0.22-0.39,0.36-0.66,0.4
			c-0.07,0.01-0.21,0.04-0.42,0.08c-0.21,0.04-0.37,0.06-0.49,0.08l-0.46,0.04c-0.19,0.03-0.37,0.04-0.56,0.03
			c-0.18-0.01-0.37-0.02-0.58-0.03c-2.31-0.29-3.64-1.14-3.98-2.55c-0.28-1.15,0.17-2.37,1.33-3.68c0.96-1.07,2.06-1.86,3.31-2.35
			c0.41-0.16,0.81-0.27,1.2-0.34c0.39-0.07,0.82-0.03,1.3,0.1c0.47,0.13,0.85,0.4,1.12,0.81c0.46,0.65,0.8,1.68,1,3.07
			c0.13,0.93,0.2,1.91,0.2,2.94c0,0.17,0,0.5,0.01,0.98c0.01,0.48,0.01,0.88,0.01,1.2c0,0.32-0.01,0.71-0.03,1.17
			c-0.02,0.46-0.06,0.88-0.12,1.24c-0.33,2.09-1.23,3.56-2.68,4.42c-0.49,0.28-1.1,0.42-1.81,0.45c-0.71,0.02-1.33-0.11-1.85-0.4
			c-0.19-0.09-0.38-0.2-0.59-0.35l-0.61-0.48l-0.41-0.33c-0.23-0.17-0.37-0.4-0.4-0.67c-0.04-0.28,0.03-0.53,0.2-0.76
			c0.17-0.23,0.39-0.37,0.66-0.4C67.84,18.03,68.09,18.1,68.33,18.26z"/>
		<path d="M93.75,3c-0.49,2.38-0.82,4.6-0.98,6.66c-0.13,1.94-0.15,4.23-0.04,6.86c0.01,0.36-0.1,0.68-0.35,0.96
			c-0.25,0.28-0.55,0.42-0.91,0.43c-0.48,0.01-0.86-0.17-1.15-0.54c-0.12-0.1-0.22-0.21-0.3-0.33c-2.03-2.93-3.74-6.06-5.14-9.38
			c-0.39,3.21-0.33,5.93,0.17,8.16c0.09,0.36,0.03,0.7-0.16,1.01c-0.2,0.31-0.47,0.51-0.83,0.59c-0.36,0.08-0.69,0.02-1-0.17
			c-0.31-0.2-0.5-0.47-0.58-0.82c-0.26-1.1-0.43-2.23-0.5-3.38c-0.07-1.15-0.05-2.39,0.07-3.7c0.12-1.31,0.23-2.38,0.35-3.2
			c0.12-0.82,0.29-1.96,0.52-3.41c0.04-0.26,0.08-0.46,0.11-0.59c0.06-0.36,0.24-0.65,0.53-0.86c0.3-0.21,0.63-0.29,0.99-0.23
			S85.2,1.3,85.41,1.6c0.12,0.15,0.2,0.3,0.24,0.46c1.06,3.47,2.51,6.81,4.35,10.01c0.07-3.05,0.45-6.25,1.13-9.6
			c0.07-0.36,0.27-0.65,0.58-0.85c0.31-0.2,0.64-0.27,1-0.2c0.35,0.07,0.63,0.26,0.84,0.58C93.76,2.32,93.82,2.65,93.75,3z"/>
		<path d="M100.23,4.85c0.7,0.2,1.35,0.54,1.96,1c0.75,0.58,1.33,1.25,1.74,2.01c0.41,0.76,0.62,1.53,0.64,2.3
			c0.02,0.77-0.09,1.53-0.34,2.3c-0.25,0.76-0.63,1.47-1.14,2.11c-0.52,0.65-1.13,1.19-1.84,1.64c-0.83,0.52-1.67,0.84-2.52,0.95
			c-0.86,0.11-1.66-0.01-2.42-0.36c-0.77-0.36-1.36-0.94-1.76-1.72c-0.41-0.78-0.59-1.7-0.54-2.74c0.07-1.76,0.51-3.33,1.31-4.73
			c0.8-1.4,1.95-2.51,3.46-3.32c0.25-0.15,0.5-0.18,0.77-0.1c0.27,0.08,0.47,0.25,0.6,0.51C100.18,4.74,100.2,4.79,100.23,4.85z
			 M97.62,7.85c-0.97,1.22-1.49,2.74-1.57,4.57c-0.06,1.31,0.32,2.15,1.13,2.52c0.3,0.19,0.73,0.25,1.28,0.17
			c0.55-0.07,1.12-0.29,1.7-0.65c0.88-0.57,1.53-1.28,1.95-2.13c0.41-0.86,0.52-1.73,0.31-2.61c-0.2-0.89-0.7-1.64-1.5-2.26
			c-0.22-0.17-0.49-0.33-0.82-0.48s-0.57-0.22-0.73-0.22c-0.13,0-0.24,0.02-0.33,0.05c-0.09,0.04-0.16,0.07-0.21,0.1
			c-0.05,0.03-0.17,0.13-0.37,0.3s-0.37,0.32-0.51,0.44C97.87,7.74,97.75,7.81,97.62,7.85z"/>
		<path d="M107.24,10.27c0.77-1.45,1.85-2.69,3.24-3.72c0.23-0.16,0.49-0.22,0.76-0.19c0.28,0.04,0.5,0.17,0.66,0.4
			c0.17,0.23,0.23,0.49,0.2,0.76c-0.04,0.28-0.17,0.5-0.4,0.68c-1.77,1.34-2.89,2.99-3.35,4.96c-0.07,0.28-0.16,1-0.26,2.18
			c-0.06,0.67-0.09,1.05-0.11,1.15c-0.03,0.19-0.05,0.34-0.07,0.46l-0.09,0.26c-0.09,0.28-0.28,0.48-0.57,0.61
			c-0.32,0.15-0.63,0.15-0.94,0.02c-0.33-0.14-0.54-0.4-0.63-0.76c-0.06-0.2-0.07-0.45-0.02-0.74c0.01-0.14,0.03-0.27,0.04-0.37
			c0.01-0.1,0.03-0.17,0.03-0.21c0.01-0.04,0.01-0.07,0.01-0.1c-0.01-0.14-0.04-0.36-0.09-0.63c-0.04-0.28-0.07-0.46-0.09-0.57
			c-0.1-0.88-0.22-2.17-0.35-3.85l-0.26-3.05c-0.03-0.28,0.05-0.52,0.23-0.74c0.18-0.22,0.41-0.34,0.7-0.37
			c0.28-0.03,0.53,0.05,0.75,0.23c0.22,0.18,0.34,0.42,0.37,0.71C107.07,7.93,107.14,8.89,107.24,10.27z"/>
		<path d="M112.64,16.1c-0.17-0.9-0.27-1.8-0.28-2.71c-0.01-0.91,0.1-1.85,0.35-2.82c0.26-0.94,0.65-1.81,1.18-2.59
			c0.48-0.71,0.95-1.26,1.41-1.65c0.45-0.38,0.9-0.61,1.35-0.7c0.7-0.12,1.29,0.09,1.78,0.63c0.28,0.31,0.47,0.79,0.59,1.46
			c0.04,0.17,0.07,0.36,0.09,0.54c0.87-1.28,1.84-2.1,2.92-2.46c0.38-0.12,0.67-0.2,0.89-0.24c0.55-0.07,1.02,0.02,1.39,0.28
			c0.6,0.41,0.96,1.21,1.11,2.39c0.09,0.8,0.09,1.81,0.02,3.05c-0.03,0.6-0.08,1.24-0.15,1.95c-0.07,0.7-0.15,1.35-0.22,1.95
			c-0.07,0.59-0.12,0.96-0.13,1.11c-0.03,0.29-0.15,0.53-0.37,0.71s-0.47,0.26-0.75,0.23c-0.28-0.03-0.52-0.15-0.7-0.37
			c-0.18-0.22-0.26-0.46-0.23-0.74c0.01-0.16,0.06-0.53,0.13-1.11c0.07-0.58,0.14-1.22,0.22-1.9c0.07-0.69,0.12-1.34,0.15-1.95
			c0.07-1.12,0.07-2.01-0.02-2.68c-0.04-0.38-0.11-0.67-0.2-0.87c-0.09,0.01-0.25,0.07-0.5,0.15c-0.65,0.22-1.29,0.79-1.92,1.72
			c-0.1,0.15-0.36,0.66-0.76,1.55c-0.17,0.36-0.34,0.63-0.5,0.81c-0.45,0.51-0.96,0.63-1.52,0.37c-0.15-0.06-0.27-0.14-0.36-0.25
			c-0.09-0.11-0.16-0.21-0.19-0.29l-0.04-0.11c-0.03-0.09-0.05-0.19-0.07-0.31c-0.03-0.12-0.05-0.29-0.06-0.52
			c-0.01-0.1-0.03-0.3-0.04-0.59c-0.01-0.29-0.03-0.53-0.04-0.72c-0.04-0.57-0.1-1-0.15-1.31c-0.03-0.17-0.07-0.31-0.11-0.41
			c-0.09,0.04-0.19,0.11-0.31,0.2c-0.32,0.28-0.66,0.68-1.02,1.22c-0.58,0.87-0.95,1.91-1.1,3.12c-0.15,1.21-0.1,2.35,0.16,3.43
			c0.06,0.28,0.01,0.53-0.14,0.77c-0.15,0.24-0.37,0.39-0.64,0.45c-0.28,0.06-0.53,0.01-0.77-0.14
			C112.85,16.59,112.7,16.38,112.64,16.1z"/>
		<path d="M133.08,7.61c-0.23,0-0.49-0.01-0.78-0.04c-0.29-0.03-0.44-0.02-0.46,0.02c-0.32,0.07-0.72,0.24-1.2,0.5
			c-0.48,0.26-0.76,0.47-0.85,0.63c-0.06,0.09-0.08,0.16-0.06,0.22c0.03,0.1,0.13,0.24,0.3,0.41c0.39,0.35,1.18,0.8,2.35,1.35
			c1.63,0.75,2.61,1.25,2.96,1.48c1.25,0.78,1.81,1.66,1.68,2.63c-0.1,0.6-0.36,1.07-0.78,1.44c-0.42,0.36-0.92,0.63-1.5,0.81
			c-0.99,0.29-2.13,0.36-3.44,0.22c-1.29-0.14-2.39-0.47-3.29-0.98c-1.23-0.7-1.8-1.59-1.7-2.68c0.04-0.35,0.2-0.69,0.48-1.02
			l0.15-0.15l0.07-0.07l0.02-0.02c0.01-0.01,0.03-0.04,0.04-0.07c0.16-0.23,0.38-0.37,0.66-0.42c0.28-0.05,0.54,0,0.77,0.16
			c0.23,0.16,0.37,0.38,0.42,0.66c0.05,0.28,0,0.54-0.16,0.77c-0.09,0.12-0.22,0.27-0.39,0.46c0.07,0.19,0.29,0.38,0.65,0.59
			c0.65,0.36,1.49,0.61,2.5,0.74c1.03,0.12,1.9,0.06,2.61-0.15c0.49-0.15,0.77-0.33,0.83-0.57c-0.06-0.14-0.3-0.35-0.72-0.61
			c-0.32-0.2-1.23-0.66-2.74-1.37c-1.36-0.64-2.31-1.2-2.85-1.7c-0.48-0.42-0.78-0.88-0.91-1.37c-0.16-0.59-0.07-1.2,0.26-1.81
			c0.29-0.48,0.84-0.94,1.65-1.39c0.65-0.35,1.23-0.58,1.74-0.7c0.17-0.04,0.38-0.07,0.62-0.07s0.48,0.01,0.71,0.02l0.35,0.02
			c0.28,0,0.51,0.1,0.72,0.3c0.2,0.2,0.3,0.44,0.3,0.72c0,0.28-0.1,0.52-0.3,0.72C133.59,7.51,133.36,7.61,133.08,7.61z"/>
	</g>
	<g id="XMLID_1_">
		<g>
			<path id="XMLID_66_" d="M150,2.92c-0.01,0.05-0.03,0.17-0.07,0.28c-1.05,2.9-2.11,5.81-3.17,8.71c-0.82,2.26-1.64,4.52-2.47,6.77
				c-0.21,0.57-0.43,0.68-1,0.47c-0.96-0.35-1.92-0.69-2.87-1.04c-0.49-0.18-0.61-0.44-0.43-0.95c1.88-5.17,3.76-10.35,5.65-15.52
				c0.18-0.5,0.42-0.62,0.93-0.44c0.99,0.36,1.98,0.72,2.97,1.08C149.82,2.38,150,2.54,150,2.92z M140.95,17.66
				c1.92-5.27,3.83-10.53,5.74-15.78c-0.45-0.21-0.46-0.21-0.6,0.18c-1.83,5.03-3.66,10.05-5.49,15.08
				C140.47,17.53,140.48,17.55,140.95,17.66z"/>
			<path id="XMLID_65_" d="M143.36,19.45c-0.08,0.55-0.47,0.86-0.77,1.23c-0.42,0.52-0.86,0.61-1.43,0.29
				c-0.2-0.11-0.43-0.2-0.66-0.25c-0.3-0.07-0.4-0.24-0.41-0.52c-0.02-0.62-0.24-1.25,0.14-1.89
				C141.27,18.69,142.31,19.07,143.36,19.45z"/>
			<path id="XMLID_64_" d="M146.56,0.92c0.22-0.92,0.52-1.08,1.35-0.78c0.42,0.15,0.85,0.3,1.27,0.46c0.8,0.29,0.93,0.65,0.5,1.46
				C148.65,1.68,147.61,1.3,146.56,0.92z"/>
			<path id="XMLID_63_" d="M141.87,21.5c-0.11,0.29-0.2,0.53-0.29,0.77c-0.09,0.23-0.24,0.31-0.48,0.22
				c-0.37-0.13-0.74-0.26-1.1-0.4c-0.23-0.09-0.33-0.25-0.22-0.51c0.1-0.24,0.18-0.48,0.27-0.75
				C140.66,21.06,141.25,21.27,141.87,21.5z"/>
			<path id="XMLID_62_" d="M139.82,22.31c0.47,0.17,0.82,0.3,1.27,0.46c-0.3,0.43-0.55,0.86-0.86,1.23
				c-0.22,0.26-0.49,0.17-0.5-0.17C139.71,23.34,139.78,22.85,139.82,22.31z"/>
		</g>
	</g>
</g>
</svg>
